<svg xmlns="http://www.w3.org/2000/svg" viewBox="0 0 512 512" role="img" aria-label="Stavros Mavrommatis monogram">
  <defs>
    <linearGradient id="g" x1="0" y1="0" x2="1" y2="1">
      <stop offset="0" stop-color="#f8f6ee"/>
      <stop offset="0.52" stop-color="#d8cbff"/>
      <stop offset="1" stop-color="#7c3cff"/>
    </linearGradient>
    <filter id="shadow" x="-20%" y="-20%" width="140%" height="140%">
      <feDropShadow dx="0" dy="18" stdDeviation="18" flood-color="#090909" flood-opacity="0.22"/>
    </filter>
  </defs>
  <rect width="512" height="512" rx="112" fill="#090909"/>
  <rect x="36" y="36" width="440" height="440" rx="88" fill="url(#g)" filter="url(#shadow)"/>
  <path d="M127 332c30 24 71 35 112 35 61 0 101-28 101-74 0-38-25-58-83-72-41-10-55-18-55-35 0-18 18-30 48-30 29 0 56 9 82 27l28-58c-29-20-67-31-109-31-62 0-103 34-103 82 0 40 27 62 82 75 40 10 54 17 54 34 0 16-17 25-45 25-33 0-64-11-93-33l-19 55Z" fill="#090909"/>
  <path d="M172 421h55V270l54 90h7l54-90v151h55V179h-58l-54 93-54-93h-59v242Z" fill="#090909" opacity="0.92"/>
</svg>
